<?xml version="1.0" encoding="UTF-8"?><svg id="Layer_1" xmlns="http://www.w3.org/2000/svg" viewBox="0 0 166.88 193.69"><defs><style>.cls-1{fill:#fff;}</style></defs><path class="cls-1" d="M23.89,35.72h23.78c3.98,.65,5.97,2.64,5.97,5.97,3.84-1.95,6.8-2.93,8.9-2.93,31.77,15.27,47.66,40.1,47.66,74.48v5.97c-6.15,11.87-19.04,17.81-38.65,17.81C23.85,132.6,0,112.74,0,77.41v-2.93c0-15.2,7.96-28.12,23.89-38.76Zm0,47.66c4.78,15.92,20.66,23.89,47.66,23.89,11.87-2.03,17.81-5.03,17.81-9.01v-2.93c-11.73-19.83-23.63-29.75-35.72-29.75-19.83,4.85-29.75,10.79-29.75,17.81ZM142.99,0c5.28,1.3,10.28,6.26,14.98,14.87v53.63l2.93,14.87h-2.93l2.93,5.97c0,12.09,1.99,45.85,5.97,101.3l-20.85,3.04c-7.96-14.4-11.94-73.03-11.94-175.89,2.46-11.87,5.43-17.81,8.9-17.81Z"/></svg>