<?xml version="1.0" encoding="UTF-8"?><svg id="Layer_1" xmlns="http://www.w3.org/2000/svg" viewBox="0 0 223.33 187.61"><defs><style>.cls-1{fill:#fff;}</style></defs><path class="cls-1" d="M77.41,20.85c4.13,.87,8.11,5.83,11.94,14.87,0,3.55-8.94,16.47-26.82,38.76,24.97,37.71,41.84,56.57,50.59,56.57v17.81h-14.87c-28.01-22.94-42.89-40.79-44.62-53.53h-3.04l-32.68,41.69H8.9c-5.94-1.23-8.9-9.19-8.9-23.89L68.51,20.85h8.9ZM142.99,0c8.47,0,14.4,30.76,17.81,92.29l5.97-2.93h44.62c4.85,3.98,8.83,5.97,11.94,5.97v14.87c0,5.94-10.93,8.9-32.79,8.9h-23.78c-3.98,.65-5.97,2.64-5.97,5.97v44.62c0,10.35-2.97,16.32-8.9,17.91h-5.97c-6.73,0-10.71-19.87-11.94-59.61l3.04-5.86c-2.03-3.91-3.04-6.91-3.04-9.01h3.04l-3.04-5.97v-8.9c0-1.95,1.01-2.93,3.04-2.93l-3.04-5.97v-26.82c0-12.88-.98-32.75-2.93-59.61,1.01,0,4.99-.98,11.94-2.93Z"/></svg>