<?xml version="1.0" encoding="UTF-8"?><svg id="Layer_1" xmlns="http://www.w3.org/2000/svg" viewBox="0 0 169.81 220.4"><defs><style>.cls-1{fill:#fff;}</style></defs><path class="cls-1" d="M17.91,0h20.85c21.21,0,41.08,12.88,59.61,38.65,1.95,3.47,2.93,7.46,2.93,11.94v8.9c0,7.96-17.88,13.93-53.63,17.91C17.84,73.94,2.93,59.03,2.93,32.68c-1.95,0-2.93-.98-2.93-2.93C5.57,9.92,11.54,0,17.91,0Zm2.93,32.68c4.05,11.94,8.03,17.91,11.94,17.91h17.91l29.75-2.93v-5.97c-11.8-13.9-26.71-20.85-44.73-20.85-9.05,3.84-14.01,7.78-14.87,11.83ZM131.16,0c13.9,0,23.81,35.76,29.75,107.27-3.98,0-5.97,2.97-5.97,8.9h-5.97l-5.97-3.04v3.04c3.98,6.51,5.97,12.49,5.97,17.91-4.99,19.83-10.93,29.75-17.81,29.75h-50.7v2.93c9.19,15.92,23.09,23.89,41.69,23.89,12.96-3.98,22.91-8.94,29.86-14.87h5.97c4.05,.87,8,5.83,11.83,14.87,0,13.9-13.9,23.81-41.69,29.75-45.67-6.44-68.51-29.28-68.51-68.51-2.03,0-3.04-4.96-3.04-14.87l5.97-2.93h56.67c3.98,0,5.97-1.99,5.97-5.97-7.96-3.98-25.84-7.96-53.63-11.94l-5.97,2.93c-13.9-2.53-20.85-9.48-20.85-20.85v-8.9c46.4,0,78.17,6.95,95.33,20.85-5.94-20.7-10.89-52.48-14.87-95.33V5.86c.58-3.91,2.57-5.86,5.97-5.86Z"/></svg>