<?xml version="1.0" encoding="UTF-8"?><svg id="Layer_1" xmlns="http://www.w3.org/2000/svg" viewBox="0 0 184.57 220.29"><defs><style>.cls-1{fill:#fff;}</style></defs><path class="cls-1" d="M71.44,3.04c3.84,1.95,6.8,2.93,8.9,2.93v11.94c0,7.89-5.94,16.79-17.81,26.71,29.75,28.81,44.62,44.7,44.62,47.66-2.03,3.84-3.04,6.8-3.04,8.9h-17.81c-1.95,0-14.84-12.88-38.65-38.65L11.94,98.26c-4.13-.87-8.11-5.83-11.94-14.87C0,68.69,22.8,41.91,68.4,3.04h3.04Zm44.62,119c33.73,0,50.59,18.86,50.59,56.57,0,4.99-.98,12.92-2.93,23.78l2.93,5.97c0,6.8-8.94,10.78-26.82,11.94v-3.04l-5.86,3.04h-5.97c-2.03,0-3.04-1.01-3.04-3.04-1.95,0-2.93,1.01-2.93,3.04-39.67,0-59.5-11.91-59.5-35.72l-3.04-17.91h3.04c-3.98-11.36-5.97-24.25-5.97-38.65l5.97-2.93h5.86l9.01,5.86c8.47-3.91,21.35-6.88,38.65-8.9Zm-32.68,32.79l2.93,35.72h50.59c0-3.98,1.99-5.97,5.97-5.97v-23.78c0-4.41-7.96-8.4-23.89-11.94-5.14,0-17.01,1.99-35.61,5.97ZM124.97,0c9.92,5.14,14.87,13.1,14.87,23.89v26.71c0,3.4,12.92,7.38,38.76,11.94l5.97,14.87c-2.03,3.84-3.04,6.8-3.04,8.9l-35.72-5.97,3.04,35.72-9.01,5.97c-11.8,0-19.72-31.74-23.78-95.22,1.59-17.88,4.56-26.82,8.9-26.82Z"/></svg>